<svg id="Layer_2" data-name="Layer 2" xmlns="http://www.w3.org/2000/svg" viewBox="0 0 900 900"><defs><style>.cls-1{fill:#333;}.cls-2{fill:#ccc;}.cls-3{fill:#e8c572;}.cls-4{fill:#ea95ab;}</style></defs><title>PRESENTATION_LoveSVG_CC</title><path class="cls-1" d="M356.29,193.82a2.91,2.91,0,0,1,1.77,1.6,3.81,3.81,0,0,1,.23,2.41,3.22,3.22,0,0,1-1.23,2.15,5,5,0,0,1-2.23.86A17.3,17.3,0,0,1,352,201c-1.06,0-2.14,0-3.23,0v-.09h-2.46q-1.18,0-2.46-.09a7.72,7.72,0,0,1-3.61-.82,3.7,3.7,0,0,1-1.64-1.73,2.79,2.79,0,0,1,0-2,5,5,0,0,1,1.18-1.87,4.87,4.87,0,0,1,1-.59,2.58,2.58,0,0,0,.91-.73,4.14,4.14,0,0,0,.69-1.46,10.9,10.9,0,0,0,.27-2.78q0-2.46-.18-6.38c-.13-2.62-.26-5.41-.41-8.39s-.34-6-.55-8.94-.41-5.69-.59-8.16-.35-4.49-.5-6.1-.23-2.48-.23-2.6a24.22,24.22,0,0,1-.23-2.46,1.92,1.92,0,0,0-1.32-1.74,3.9,3.9,0,0,1-2-1.82,6,6,0,0,1-.5-2.55,3,3,0,0,1,.32-1.6,2.1,2.1,0,0,1,1.5-.68,23.71,23.71,0,0,1,2.92-.46q1.18-.09,2.91-.09a38,38,0,0,1,7.57,1,5.17,5.17,0,0,1,2,.92,3.4,3.4,0,0,1,1.14,1.55,3.59,3.59,0,0,1,.13,1.87,3.84,3.84,0,0,1-1,1.86,5.77,5.77,0,0,0-1.55,2.83,12.51,12.51,0,0,0-.18,3c0,.49,0,1.58.09,3.28s.14,3.74.23,6.11.19,5,.32,7.84.25,5.7.41,8.52.32,5.51.5,8,.36,4.66.55,6.42a8.5,8.5,0,0,0,.59,2.24A3.26,3.26,0,0,0,356.29,193.82Z"/><path class="cls-1" d="M436.24,139.62c.06.67.18,2.42.36,5.24s.38,6.19.6,10.08.44,8,.68,12.4.44,8.46.59,12.26.28,7,.37,9.62a43.79,43.79,0,0,1,0,4.46A8.49,8.49,0,0,1,437,198.2a7.83,7.83,0,0,1-3.69,2.23,16.6,16.6,0,0,1-5.11.55,59.08,59.08,0,0,1-6.15-.55,8,8,0,0,1-4.43-1.78,22,22,0,0,1-3.51-4.33,32.93,32.93,0,0,1-2.23,3.79,5.49,5.49,0,0,1-3.6,2.41,20.92,20.92,0,0,1-6.2.18,26.07,26.07,0,0,1-5.93-1.45,6.41,6.41,0,0,1-2.87-2.19,9.44,9.44,0,0,1-1.5-3.28,50,50,0,0,1-1.46-8.8c-.3-3.44-.5-7-.59-10.85s-.11-7.61-.05-11.44.17-7.28.32-10.35.29-5.62.41-7.66.21-3.2.27-3.51a4,4,0,0,1,4.47-3.92,12.69,12.69,0,0,1,4.93.46c1.15.42,1.7,1.58,1.64,3.46,0,.61-.07,1.9-.19,3.88s-.24,4.34-.36,7.11-.24,5.74-.37,8.93-.16,6.31-.13,9.35.12,5.83.27,8.38a26.45,26.45,0,0,0,.87,5.93,2.84,2.84,0,0,0,1.36,1.82,3.3,3.3,0,0,0,2.06.41,3.5,3.5,0,0,0,1.91-.91,3.32,3.32,0,0,0,1.05-2.14c.24-2.19.38-4,.41-5.43s.07-2.61.14-3.55a7,7,0,0,1,.41-2.19,2.45,2.45,0,0,1,1.23-1.23,6,6,0,0,1,5.56.36,2.71,2.71,0,0,1,1.27,1.87,19,19,0,0,1,.51,3.29c.09,1.24.19,2.55.32,3.92a18,18,0,0,0,.72,3.78,6.68,6.68,0,0,0,1.69,2.83,4.76,4.76,0,0,0,5.84.18,3.44,3.44,0,0,0,1.23-2.37c.06-.37.07-1.67,0-3.92s-.07-5-.14-8.12-.13-6.56-.22-10.21-.17-7.08-.23-10.3-.11-6-.14-8.25,0-3.63.05-4.06c.18-1.7.8-2.73,1.87-3.1a13.06,13.06,0,0,1,4.69-.36,3.39,3.39,0,0,1,2,.64A3,3,0,0,1,436.24,139.62Z"/><path class="cls-1" d="M476.53,196q-5,.47-9.71.87a47.3,47.3,0,0,1-8.57,0,16.94,16.94,0,0,1-6.61-1.86,8.15,8.15,0,0,1-3.82-4.88,67.87,67.87,0,0,1-2.33-9.8,41.16,41.16,0,0,1-.32-10.08,9.3,9.3,0,0,1,2.14-5.42,10,10,0,0,1,5.25-2.78c1.09-.24,2.53-.49,4.33-.73s3.72-.44,5.79-.59,4.16-.26,6.29-.32,4-.06,5.74,0a3.22,3.22,0,0,0,2.05-.32,2.88,2.88,0,0,0,.59-2q0-3.82-.22-6.66a7.91,7.91,0,0,0-1.69-4.55,7.81,7.81,0,0,0-4.65-2.37,34.87,34.87,0,0,0-9-.19,4,4,0,0,0-2.37.82,2.73,2.73,0,0,0-.73,1.74,10.24,10.24,0,0,0,.19,2.64c.18,1,.33,2.22.45,3.55a5.86,5.86,0,0,1-.41,3.1,5.34,5.34,0,0,1-1.68,2.1,6.42,6.42,0,0,1-2.47,1.14,8.05,8.05,0,0,1-2.82.14,5.23,5.23,0,0,1-3.19-1.14c-.55-.58-.79-1.69-.73-3.33.06-2.49.18-4.82.36-7a14.14,14.14,0,0,1,1.6-5.66,9.29,9.29,0,0,1,4.19-3.83,20.87,20.87,0,0,1,8.25-1.59c2.19-.06,4.48-.11,6.89-.14a32.22,32.22,0,0,1,6.74.59,14.44,14.44,0,0,1,5.43,2.24,7,7,0,0,1,2.82,4.79c.12.66.26,2.09.41,4.28s.32,4.83.5,7.93.38,6.49.6,10.17.39,7.34.54,11,.29,7.1.41,10.35.22,6,.28,8.25a4.16,4.16,0,0,1-.69,2.92,4.49,4.49,0,0,1-2.69,1.27,10.8,10.8,0,0,1-3.1.1,4,4,0,0,1-2-.83,4.48,4.48,0,0,1-1.23-1.68A20.27,20.27,0,0,1,476.53,196Zm-5-7.56a4.3,4.3,0,0,0,2.69-1.05,5.63,5.63,0,0,0,1.32-2.6c.06-.3.14-.94.23-1.91s.18-2.07.27-3.29.18-2.41.27-3.6.14-2.11.14-2.78a3.81,3.81,0,0,0-.64-2.78,4.57,4.57,0,0,0-2.73-1,33.72,33.72,0,0,0-11.49.73,3.91,3.91,0,0,0-2.82,2.14,9.79,9.79,0,0,0-.92,3.92,19.81,19.81,0,0,0,.41,4.7,28.47,28.47,0,0,0,1.24,4.38,3.29,3.29,0,0,0,2.73,2.46,17.67,17.67,0,0,0,2.14.32c.94.09,1.9.16,2.87.22s1.86.11,2.65.14Z"/><path class="cls-1" d="M499.23,200.34a5.57,5.57,0,0,1-2.78-.91,6.25,6.25,0,0,1-2-2.1,7.5,7.5,0,0,1-.91-2.87,6.16,6.16,0,0,1,.55-3.24,2.47,2.47,0,0,1,1.55-1.46,10.48,10.48,0,0,1,2.64-.45c1-.06,2.22-.09,3.56-.09a22.81,22.81,0,0,0,4.37-.46,5,5,0,0,0,4.2-3,10.44,10.44,0,0,0,.41-5.79,20.65,20.65,0,0,0-2.51-6.61,21,21,0,0,0-4.47-5.52q-2.19-1.9-4.46-3.92a17.94,17.94,0,0,1-3.88-4.88,20.34,20.34,0,0,1-2.19-6.92,30.9,30.9,0,0,1,.51-9.9,6,6,0,0,1,1.68-3.37,5.48,5.48,0,0,1,3.42-1.46,60.15,60.15,0,0,1,7.34-.09,41.55,41.55,0,0,1,7.16,1,4.52,4.52,0,0,1,2.37,1.37,5.23,5.23,0,0,1,.91,2.74,5.12,5.12,0,0,1-.64,3.46,3.91,3.91,0,0,1-2.1,1.46,11.49,11.49,0,0,1-2.78.41,12.53,12.53,0,0,0-2.73.36,3.43,3.43,0,0,0-1.92,1.24,4,4,0,0,0-.32,3,9.22,9.22,0,0,0,1,3.15,12.14,12.14,0,0,0,1.87,2.46,38.12,38.12,0,0,0,3.05,2.78c1.25,1,2.78,2.4,4.61,4.1a19.27,19.27,0,0,1,4,6.25,28.81,28.81,0,0,1,1.69,6.47,39.91,39.91,0,0,1,.36,5.75c0,1.73,0,3,0,3.87a13.53,13.53,0,0,1-2.55,9.3q-2.82,3.65-9,4.19a16.83,16.83,0,0,1-2.19.09q-1.65,0-3.51-.09c-1.25-.06-2.45-.1-3.6-.13S499.84,200.4,499.23,200.34Z"/><path class="cls-1" d="M349.91,261.56a113.57,113.57,0,0,1,1.35,16.55,137,137,0,0,1-.72,16,112.91,112.91,0,0,1-2.24,13.84,64.79,64.79,0,0,1-3,10.07,10.83,10.83,0,0,1-5.76,5.92,24.64,24.64,0,0,1-9,1.68,96.07,96.07,0,0,1-11.36-.56,123.76,123.76,0,0,0-12.87-.64c-.86,2.66-1.6,4.71-2.24,6.15s-2.19,2.16-4.64,2.16c-1.6,0-3.12,0-4.56-.08a16,16,0,0,1-3.84-.56,6,6,0,0,1-2.79-1.68,7,7,0,0,1-1.6-3.43q-1.6-8.16-2.64-18t-1.6-20.23q-.57-10.39-.56-20.55t.24-18.71q.24-8.56.72-15a72.55,72.55,0,0,1,1.12-9.35q1.11-4.64,5.28-4.16,7,.48,10,1.76a6.25,6.25,0,0,1,3.76,4.4,30.15,30.15,0,0,1,.48,8.71,106.82,106.82,0,0,0,.48,14.87q3.84-.15,8.63-.63c3.2-.32,6.43-.54,9.68-.64a92.48,92.48,0,0,1,9.59.16,33.91,33.91,0,0,1,8.56,1.6,16.57,16.57,0,0,1,6.4,3.75A11.42,11.42,0,0,1,349.91,261.56Zm-18.4,42.38a57.61,57.61,0,0,0,.8-6.8q.33-4.39.48-8.87c.11-3,.19-5.73.24-8.24a40.69,40.69,0,0,0-.08-5,11.74,11.74,0,0,0-2.4-6.71,13.23,13.23,0,0,0-5.35-3.92,22.5,22.5,0,0,0-7.36-1.6,47.33,47.33,0,0,0-8.23.24q-3.53.48-4.64,1.76t-1.44,5c0,.32,0,1.46.08,3.43s.16,4.3.32,7,.32,5.36.48,8.08.34,5,.56,6.79a45.45,45.45,0,0,0,1.2,7q.87,3.53,1.68,7,1,4.32,5.59,4.32c2.46,0,4.69,0,6.72-.08a16.16,16.16,0,0,0,5.36-1,8.78,8.78,0,0,0,3.84-2.79A12.4,12.4,0,0,0,331.51,303.94Z"/><path class="cls-1" d="M413.55,231.34a79.07,79.07,0,0,1,3.76,18.71,217.42,217.42,0,0,1,.88,23q-.17,12-1,23.83t-2,21.11q-.79,5.76-3.52,8.8a15.44,15.44,0,0,1-6.87,4.39,33.89,33.89,0,0,1-9.6,1.52q-5.43.16-11.51.16a18.12,18.12,0,0,1-9.92-2.64,16.63,16.63,0,0,1-6.39-8.23,62.4,62.4,0,0,1-2.24-10.56q-1-6.7-1.68-14.87t-1.12-17.11q-.41-9-.4-17.43.15-7.2.8-14.15T364,233.73a10.54,10.54,0,0,1,3.36-7.51,19.7,19.7,0,0,1,7.51-4.08,37.78,37.78,0,0,1,9.76-1.52q5.26-.15,10.07.16c2.35.22,4.5.48,6.48.8a20.22,20.22,0,0,1,5.36,1.6,13.18,13.18,0,0,1,4.15,3A14.37,14.37,0,0,1,413.55,231.34ZM399.16,307c.21-2,.42-4.77.64-8.24s.34-7.3.4-11.51.08-8.56.08-13-.08-8.77-.24-12.87-.38-7.81-.64-11.11a56.13,56.13,0,0,0-1-7.68,4.17,4.17,0,0,0-3.52-3.44,24.72,24.72,0,0,0-5.92-.4,6,6,0,0,0-3.91,1.12,6.84,6.84,0,0,0-2,3.84,47.11,47.11,0,0,0-1.28,9c-.22,3.51-.32,7.32-.32,11.43s.08,8.32.24,12.63.37,8.4.64,12.24.5,7.33.72,10.47.42,5.57.64,7.28q.32,3.68,2.64,5.27a7.91,7.91,0,0,0,5.11,1.44,9.44,9.44,0,0,0,5.12-1.84A6.27,6.27,0,0,0,399.16,307Z"/><path class="cls-1" d="M448.57,224.46q.65,1.28,1.44,1a8.21,8.21,0,0,0,1.92-1.2c.75-.59,1.54-1.2,2.4-1.84a5.66,5.66,0,0,1,2.88-1.12,68.74,68.74,0,0,1,8,.16,27.86,27.86,0,0,1,7.44,1.6,16.37,16.37,0,0,1,5.92,3.76,12.21,12.21,0,0,1,3.27,6.31A62.89,62.89,0,0,1,483.35,246a29.14,29.14,0,0,1-1.59,10.71,9.83,9.83,0,0,1-5.2,5.92q-3.53,1.51-9.44-1.52a3.68,3.68,0,0,1-2.16-2.8,14.11,14.11,0,0,1-.08-4.48q.33-2.48.88-5.27a39.93,39.93,0,0,0,.72-5.12,11.54,11.54,0,0,0-.4-4.16,3.3,3.3,0,0,0-2.64-2.32,25.78,25.78,0,0,0-4.87-.8,13.53,13.53,0,0,0-4.64.48,8.59,8.59,0,0,0-3.68,2.16,7.51,7.51,0,0,0-2,3.92,48.46,48.46,0,0,0-.56,9.76q.07,6.87.48,15.75t1,18.47q.56,9.58,1.12,17.75t.88,13.83q.31,5.69.32,6.64a10.13,10.13,0,0,1-1.76,5.59q-1.44,1.77-5,2.4a16.22,16.22,0,0,1-7.43-.4,6.61,6.61,0,0,1-4.4-4.87,55.63,55.63,0,0,1-1-7q-.48-5.11-.88-12.07t-.72-15.2q-.31-8.24-.56-16.63t-.4-16.31q-.17-7.92-.24-14.15T429.06,236V231.5c.21-4.05,1.15-6.85,2.8-8.4s4.4-2.26,8.24-2.16a30.36,30.36,0,0,1,4.71.4A5,5,0,0,1,448.57,224.46Z"/><path class="cls-1" d="M570.27,324.73v2.32a12.09,12.09,0,0,1-.32,2.72,5,5,0,0,1-1.12,2.23,3.31,3.31,0,0,1-2.56.88c-3.52,0-6.29.06-8.31.16a14.31,14.31,0,0,1-4.64-.32,2.69,2.69,0,0,1-2-1.92,18.88,18.88,0,0,1-.4-4.63q0-2.4-.08-7.92t-.16-12.63c-.06-4.75-.14-9.7-.24-14.88s-.19-10.07-.24-14.71-.11-8.69-.16-12.15,0-5.84.08-7.12a17.88,17.88,0,0,0-.72-6.47,12.06,12.06,0,0,0-2.32-4.08,9.36,9.36,0,0,0-3.28-2.4,24.51,24.51,0,0,0-3.76-1.28,21.06,21.06,0,0,0-9.35-.72,17.71,17.71,0,0,0-7.76,3.2,17.4,17.4,0,0,0-5.36,6.71,26.8,26.8,0,0,0-2.31,10c0,.53,0,2.4.08,5.6s.1,7.06.16,11.59.16,9.41.32,14.63.26,10.11.32,14.64.1,8.45.16,11.75.08,5.33.08,6.08a10.64,10.64,0,0,1-.48,3.36,4.12,4.12,0,0,1-2.16,2.31,14.6,14.6,0,0,1-4.88,1.28,48,48,0,0,1-8.48.08,6,6,0,0,1-4.23-1.6q-1.36-1.44-1.76-5.35a93.41,93.41,0,0,1-.24-11q.15-7.11.48-18.63t.4-28.22q.08-16.71-.56-39.74-.17-4.64,1.44-6.56t6.23-2.4a15.57,15.57,0,0,1,5.44.24,5.83,5.83,0,0,1,3,2,10.86,10.86,0,0,1,1.76,3.76c.42,1.55,1,3.44,1.6,5.68a22.05,22.05,0,0,0,1.84-1.68,26.44,26.44,0,0,1,3.19-2.64,30.53,30.53,0,0,1,5-2.8,27.14,27.14,0,0,1,7-2q11.36-.8,17.59.72A26.27,26.27,0,0,1,558,226.7a24.47,24.47,0,0,1,4.63,4.23,17.59,17.59,0,0,1,2.72,4.56,30.37,30.37,0,0,1,1.52,5q.55,2.64,1,5.52a65.32,65.32,0,0,1,.64,6.56q.32,4.95.56,11.91t.48,15.27q.24,8.31.4,16.55t.24,15.67Q570.27,319.45,570.27,324.73Z"/><path class="cls-1" d="M558.3,350a4.69,4.69,0,0,1,2.28,1.41,5.93,5.93,0,0,1,1.19,2.55,16.16,16.16,0,0,1,.32,3.83c0,1.49-.11,3.24-.23,5.24s-1.22,3.05-3.47,2.92a6.76,6.76,0,0,1-2.87-.59,2.42,2.42,0,0,1-1.14-1.32,5.23,5.23,0,0,1-.18-2q.09-1.19.09-2.82a1.64,1.64,0,0,0-.36-1.19,2,2,0,0,0-1.28-.41,16.66,16.66,0,0,0-2.51.14q-1.59.18-4.14.36c-.73.06-1.28.61-1.65,1.64a14.94,14.94,0,0,0-.72,3.56,28.27,28.27,0,0,0-.1,4c.06,1.34.13,2.34.19,3a1.82,1.82,0,0,0,.82,1.59,4.73,4.73,0,0,0,1.77.55,13.93,13.93,0,0,0,2.28.09,6.41,6.41,0,0,1,2.24.28,3.47,3.47,0,0,1,1.68,1.14,3.89,3.89,0,0,1,.69,2.55,16,16,0,0,1-.64,5.24,3.8,3.8,0,0,1-4,2.83l-2.23-.09a2.61,2.61,0,0,0-1.69.45c-.45.34-.65,1-.59,2.14q.27,8.49.5,13.31a56.82,56.82,0,0,1,0,7.25c-.15,1.61-.47,2.63-1,3.06a4.38,4.38,0,0,1-2.37.82c-2.44.24-4.12.1-5.06-.41s-1.55-1.7-1.83-3.56a60.84,60.84,0,0,1-.41-8.16c0-3.58-.3-8.3-.91-14.13-.06-.73-.55-1.06-1.46-1s-1.94.09-3.1.09a10,10,0,0,1-3.37-.59,3.73,3.73,0,0,1-2.19-3,9.76,9.76,0,0,1-.36-2,7.26,7.26,0,0,1,.09-2.05,4.45,4.45,0,0,1,.68-1.69,2.14,2.14,0,0,1,1.41-.91,31.67,31.67,0,0,1,4-.69,9.86,9.86,0,0,0,2.41-.45,2,2,0,0,0,1.19-1,6.57,6.57,0,0,0,.41-2.23c.18-3.52.24-6.55.18-9.07a42.11,42.11,0,0,1,.23-6.29,8.28,8.28,0,0,1,1.41-4,6.31,6.31,0,0,1,3.74-2.09,29.07,29.07,0,0,1,5.51-.73,30.92,30.92,0,0,1,5.15.23,38.63,38.63,0,0,1,4.79.91C555.34,349.18,556.84,349.59,558.3,350Z"/><path class="cls-1" d="M595.59,353.67a44.7,44.7,0,0,1,2.14,10.66,121.62,121.62,0,0,1,.5,13.13q-.09,6.84-.59,13.58t-1.14,12a9.24,9.24,0,0,1-2,5,8.85,8.85,0,0,1-3.92,2.51,19.77,19.77,0,0,1-5.47.87q-3.11.09-6.57.09a10.34,10.34,0,0,1-5.65-1.51,9.48,9.48,0,0,1-3.65-4.69,36.32,36.32,0,0,1-1.27-6q-.56-3.82-1-8.48t-.64-9.75q-.23-5.12-.23-9.94.09-4.11.46-8.07t.73-8.07a6,6,0,0,1,1.91-4.28,11.37,11.37,0,0,1,4.29-2.33,21.51,21.51,0,0,1,5.56-.86c2-.06,3.92,0,5.74.09q2,.18,3.69.45a11.65,11.65,0,0,1,3.06.92,7.4,7.4,0,0,1,2.37,1.73A8.37,8.37,0,0,1,595.59,353.67Zm-8.21,43.12c.13-1.16.25-2.72.37-4.7s.2-4.16.23-6.56,0-4.88,0-7.43,0-5-.13-7.34-.22-4.45-.37-6.34a31.34,31.34,0,0,0-.59-4.37,2.35,2.35,0,0,0-2-2,13.47,13.47,0,0,0-3.37-.23,3.39,3.39,0,0,0-2.23.64,3.84,3.84,0,0,0-1.14,2.18,26.49,26.49,0,0,0-.73,5.11c-.12,2-.19,4.18-.19,6.52s0,4.74.14,7.2.21,4.79.37,7,.28,4.17.41,6,.24,3.17.36,4.15a3.78,3.78,0,0,0,1.51,3,4.52,4.52,0,0,0,2.91.82,5.44,5.44,0,0,0,2.92-1A3.57,3.57,0,0,0,587.38,396.79Z"/><path class="cls-1" d="M615.56,349.74c.24.49.51.67.82.55a5,5,0,0,0,1.09-.68c.42-.34.88-.69,1.37-1.05a3.14,3.14,0,0,1,1.64-.64A38.56,38.56,0,0,1,625,348a16.29,16.29,0,0,1,4.24.91,9.27,9.27,0,0,1,3.37,2.15,7,7,0,0,1,1.87,3.6,36.07,36.07,0,0,1,.86,7.34,16.6,16.6,0,0,1-.91,6.11,5.6,5.6,0,0,1-3,3.37q-2,.87-5.38-.87A2.07,2.07,0,0,1,624.9,369a8,8,0,0,1,0-2.56c.13-.94.29-1.94.51-3a25.77,25.77,0,0,0,.41-2.92,6.64,6.64,0,0,0-.23-2.37,1.89,1.89,0,0,0-1.51-1.32,13.68,13.68,0,0,0-2.78-.46,7.61,7.61,0,0,0-2.64.27,5,5,0,0,0-2.1,1.23,4.32,4.32,0,0,0-1.14,2.24,27.86,27.86,0,0,0-.32,5.56c0,2.61.13,5.61.28,9s.33,6.88.54,10.53.43,7,.64,10.12.38,5.73.5,7.88.19,3.42.19,3.79a5.85,5.85,0,0,1-1,3.19,4.6,4.6,0,0,1-2.82,1.37,9.38,9.38,0,0,1-4.24-.23,3.79,3.79,0,0,1-2.51-2.78,33.63,33.63,0,0,1-.55-4c-.18-2-.35-4.24-.5-6.89s-.29-5.53-.41-8.66-.23-6.29-.32-9.48-.17-6.29-.22-9.3-.11-5.7-.14-8.07-.05-4.31-.05-5.83v-2.55c.12-2.31.66-3.91,1.6-4.79s2.51-1.29,4.69-1.23a17.15,17.15,0,0,1,2.69.23A2.85,2.85,0,0,1,615.56,349.74Z"/><path class="cls-2" d="M602.64,694.41a30.57,30.57,0,0,0-10.52.67,3.58,3.58,0,0,0-2.59,2,8.9,8.9,0,0,0-.83,3.59,17.46,17.46,0,0,0,.37,4.3,25.78,25.78,0,0,0,1.13,4,3,3,0,0,0,2.5,2.25,14.22,14.22,0,0,0,2,.29c.86.09,1.73.16,2.63.21s1.69.1,2.42.13,1.22,0,1.5,0a3.93,3.93,0,0,0,2.46-1,5.17,5.17,0,0,0,1.21-2.38c.06-.28.13-.86.21-1.75s.17-1.9.25-3,.17-2.21.25-3.3.13-1.93.13-2.55a3.47,3.47,0,0,0-.59-2.54A4.19,4.19,0,0,0,602.64,694.41Z"/><path class="cls-2" d="M732.15,671.21c-3.29-13.76-12-22.46-25.52-26.33-2.39-.69-3.56-1.66-4.07-4.36-3.08-16.14-17.73-25.37-33.73-21.52-8,1.91-14.42,6.36-20.26,11.88A113.8,113.8,0,0,0,634.28,648c-1,1.41-2.15,2.73-3.35,4.25-1.6-1.14-2.95-2.08-4.28-3-4.69-3.4-9.47-6.66-14.88-8.88-16.86-6.92-34.82-2.47-46.45,11.56l-2.84,3.46c-3.09-1.32-5.86-2.64-8.73-3.71-9.41-3.51-18.77-3.58-27.85,1-11.81,6-18.71,15.64-20.53,28.77a11.72,11.72,0,0,1-3.05,6.78,29.77,29.77,0,0,0-7.72,24.23c1.36,12.07,7.59,21.22,17.44,27.95a26.81,26.81,0,0,0,19,4.35,39.1,39.1,0,0,0,21.92-10c.73-.68,1.56-1.25,2.56-2,1.88,3.16,3.47,6.06,5.29,8.82,2.47,3.74,4.78,7.66,7.75,11,7.44,8.34,17,11.68,28.07,10.45a46.26,46.26,0,0,0,23.63-9.73c4.37-3.4,8.35-7.32,12.5-11,1.3-1.15,2.59-2.32,4-3.63,2,1.59,3.65,3,5.41,4.4,4.1,3.2,8,6.68,12.38,9.47,9.54,6.12,19.5,6.37,29.06.2,13.83-8.93,21.34-21.8,22.17-38.3.36-7.19-.79-5.31,5.29-8.36,6.42-3.22,12.21-7.16,16.57-13A25.18,25.18,0,0,0,732.15,671.21Zm-160.9,44.28c-.06,1.75-.12,3-.17,3.63-.28,2.29-1.45,3.62-3.51,4s-3.55.29-4.47-.29a4.41,4.41,0,0,1-1.87-2.3,2.16,2.16,0,0,0-1.8-1.58,17,17,0,0,0-3.55,0c-1.5.14-3.41.22-5.72.25a39.35,39.35,0,0,1-8.31-1q-5.83-1.17-7.09-7.52a28.66,28.66,0,0,1-.46-4.63c-.09-2-.14-4.13-.17-6.31s0-4.2,0-6.09,0-3.17,0-3.84a11.1,11.1,0,0,1,1.59-5.72,10.26,10.26,0,0,1,3.46-3.3,12.41,12.41,0,0,1,4.6-1.5,45.52,45.52,0,0,1,5-.38c1.67,0,3.24,0,4.72.09a17.15,17.15,0,0,0,3.71-.13,5.09,5.09,0,0,0,1.8-.58,1.56,1.56,0,0,0,.46-1.3c0-.64-.06-1.53-.17-2.67a32,32,0,0,1,0-4.63,9.51,9.51,0,0,1,.5-2.76,3.29,3.29,0,0,1,1.34-1.75,4.63,4.63,0,0,1,2.58-.55,17.66,17.66,0,0,1,4.26.8,3.6,3.6,0,0,1,2.67,3.42c0,.22,0,1,.09,2.42s.09,3.19.12,5.39.07,4.66.13,7.39.09,5.55.12,8.47.06,5.82.09,8.69,0,5.51,0,7.93S571.3,713.74,571.25,715.49ZM614.79,722a4.18,4.18,0,0,1-2.46,1.17,9.62,9.62,0,0,1-2.84.08,3.59,3.59,0,0,1-1.8-.75,4.09,4.09,0,0,1-1.13-1.54,18.14,18.14,0,0,1-.75-2.13l-8.89.79a43,43,0,0,1-7.85,0,15.36,15.36,0,0,1-6.05-1.71,7.47,7.47,0,0,1-3.51-4.46,61.79,61.79,0,0,1-2.13-9,37.74,37.74,0,0,1-.29-9.23,8.5,8.5,0,0,1,2-5,9.13,9.13,0,0,1,4.8-2.55c1-.22,2.33-.45,4-.67s3.41-.4,5.3-.54,3.81-.24,5.76-.3,3.7-.05,5.26,0a2.91,2.91,0,0,0,1.88-.29,2.55,2.55,0,0,0,.54-1.79q0-3.51-.21-6.1a6.33,6.33,0,0,0-5.8-6.34,31.82,31.82,0,0,0-8.26-.17,3.65,3.65,0,0,0-2.18.75,2.42,2.42,0,0,0-.66,1.59,9.74,9.74,0,0,0,.16,2.42c.17,1,.31,2,.42,3.26a5.39,5.39,0,0,1-.37,2.83,5,5,0,0,1-1.55,1.92,6,6,0,0,1-2.25,1.05,7.24,7.24,0,0,1-2.59.12,4.83,4.83,0,0,1-2.93-1,4.28,4.28,0,0,1-.66-3q.08-3.42.33-6.39a13.08,13.08,0,0,1,1.46-5.17,8.46,8.46,0,0,1,3.84-3.51,19.11,19.11,0,0,1,7.56-1.46q3-.09,6.3-.13a29.68,29.68,0,0,1,6.18.55,13.16,13.16,0,0,1,5,2,6.41,6.41,0,0,1,2.59,4.39c.11.61.24,1.92.38,3.92s.29,4.43.45,7.27.35,5.94.55,9.31.36,6.72.5,10.06.26,6.5.37,9.47.2,5.5.25,7.56A3.79,3.79,0,0,1,614.79,722Zm40.87-23.38c-.11,4.4-.31,8.12-.58,11.15a41.23,41.23,0,0,1-.76,5.72,9.78,9.78,0,0,1-3.84,5.51,11.59,11.59,0,0,1-6.51,1.75q-3.18,0-6.55.17a49.15,49.15,0,0,1-6.35-.08,16.85,16.85,0,0,1-5.13-1.17,5,5,0,0,1-2.93-3.17c-.22-.62-.43-1.23-.62-1.84a13.75,13.75,0,0,1-.46-1.84c-.34-3.23-.59-5.7-.75-7.43a9.42,9.42,0,0,1,.16-3.76,1.92,1.92,0,0,1,1.67-1.33,25.55,25.55,0,0,1,3.76-.09,4.39,4.39,0,0,1,2.51.71,3.11,3.11,0,0,1,1,1.76,13.58,13.58,0,0,1,.25,2.79,20.38,20.38,0,0,0,.42,3.84,4.7,4.7,0,0,0,.79,2.18,2.43,2.43,0,0,0,1.71.79,16,16,0,0,0,3.17-.08c1.34-.14,3.09-.35,5.26-.63a3.25,3.25,0,0,0,2-1.17,5.22,5.22,0,0,0,1-2,11.65,11.65,0,0,0,.29-2.17c0-.73,0-1.26,0-1.59.11-3.9.18-6.9.21-9a28.52,28.52,0,0,0-.21-4.68c-.16-1-.48-1.58-1-1.75a5.09,5.09,0,0,0-2-.17c-2.34.12-4.59.13-6.76,0a23.76,23.76,0,0,1-5.89-.92,10.29,10.29,0,0,1-4.38-2.55,7.76,7.76,0,0,1-2.09-4.84c-.5-4.18-.85-7.43-1-9.77a32,32,0,0,1-.13-5.26c.11-1.17.42-1.91.92-2.21a5.22,5.22,0,0,1,2.09-.63,13.33,13.33,0,0,1,3.71,0,4.68,4.68,0,0,1,2.09.83,2.94,2.94,0,0,1,1,1.51,7.12,7.12,0,0,1,.25,1.92c.17,3.5.29,6.15.38,7.93a7.07,7.07,0,0,0,1,3.8,3.4,3.4,0,0,0,2.84,1.17c1.33,0,3.36,0,6.09,0q1.34,0,1.8-1.59a16.72,16.72,0,0,0,.54-3.84c.05-1.5.05-3.12,0-4.84a30.15,30.15,0,0,1,.17-4.68,2.1,2.1,0,0,1,2-2.09,12.91,12.91,0,0,1,5.26.3c1.17.41,1.89,1.51,2.17,3.29q1,7.77,1.3,15.62T655.66,698.58Zm32.73,12.11a12.44,12.44,0,0,1-2.34,8.52q-2.58,3.33-8.26,3.84a16.53,16.53,0,0,1-2,.08c-1,0-2.07,0-3.21-.08s-2.24-.1-3.3-.13-1.86-.07-2.42-.12a5.09,5.09,0,0,1-2.55-.84,5.58,5.58,0,0,1-1.79-1.92,6.67,6.67,0,0,1-.84-2.63,5.69,5.69,0,0,1,.5-3,2.27,2.27,0,0,1,1.42-1.34,9.85,9.85,0,0,1,2.42-.42c1-.05,2-.08,3.26-.08a21.29,21.29,0,0,0,4-.42,4.59,4.59,0,0,0,3.84-2.79,9.59,9.59,0,0,0,.38-5.31,20.52,20.52,0,0,0-6.39-11.1L667,689.4a16.57,16.57,0,0,1-3.55-4.47,18.53,18.53,0,0,1-2-6.35,28.34,28.34,0,0,1,.46-9.05,5.43,5.43,0,0,1,1.55-3.09,5,5,0,0,1,3.13-1.34,54,54,0,0,1,6.72-.08,37.65,37.65,0,0,1,6.56.91,4.11,4.11,0,0,1,2.17,1.26,5.92,5.92,0,0,1,.25,5.68,3.59,3.59,0,0,1-1.92,1.33,10.65,10.65,0,0,1-2.55.38,11.73,11.73,0,0,0-2.5.33,3.08,3.08,0,0,0-1.76,1.13,3.61,3.61,0,0,0-.29,2.75,8.37,8.37,0,0,0,.88,2.88,10.27,10.27,0,0,0,1.71,2.26,34.84,34.84,0,0,0,2.79,2.55c1.14.94,2.55,2.2,4.22,3.75a17.7,17.7,0,0,1,3.68,5.72,26.51,26.51,0,0,1,1.54,5.93,35.74,35.74,0,0,1,.33,5.26C688.41,708.73,688.39,709.91,688.39,710.69Z"/><path class="cls-2" d="M559.51,688.6a3.13,3.13,0,0,0-1.46-.87,19.56,19.56,0,0,0-6.22-.8,33.51,33.51,0,0,0-6.22.88,3.51,3.51,0,0,0-2,1.21,4.55,4.55,0,0,0-.55,2.55q0,1.24.09,3.51c0,1.5.12,3,.2,4.59s.17,3,.26,4.22.15,2.07.2,2.46a5,5,0,0,0,1.51,2.88,7.22,7.22,0,0,0,2.84,1.54,11.1,11.1,0,0,0,3.54.46,19.83,19.83,0,0,0,3.55-.37,10.75,10.75,0,0,0,2.3-.63,3.52,3.52,0,0,0,1.38-1,3.88,3.88,0,0,0,.71-1.59,11.84,11.84,0,0,0,.21-2.46q.16-5.92.29-9.27c.08-2.22.08-3.91,0-5A4.23,4.23,0,0,0,559.51,688.6Z"/><path class="cls-1" d="M567.73,619.67c-10.87-.16-24-.9-37.08-2.28-25-2.63-49.59-7.4-74.2-12.29-21.55-4.28-43.11-8.53-64.73-12.45-17.33-3.14-34.83-5.22-52.38-6.75a526.29,526.29,0,0,0-57.95-2.14,334.4,334.4,0,0,0-81.88,12.08c-4.8,1.33-9.65,2.48-14.51,3.53a21.64,21.64,0,0,1-5.63.35A5.61,5.61,0,0,1,174,595a13.07,13.07,0,0,1,.32-7.13,84.61,84.61,0,0,1,4.73-12c4.57-8.56,9.41-17,14.37-25.32,4.65-7.83,9.67-15.44,14.36-23.24a105.92,105.92,0,0,0,5.54-10.75c3-6.59,2.14-12.94-1.92-18.81a51.49,51.49,0,0,0-5.43-6.54c-3.47-3.57-7.11-7-10.68-10.46-5.85-5.7-11.73-11.36-17.51-17.12a58.72,58.72,0,0,1-5.95-6.77,30.35,30.35,0,0,1-3.64-6.48,13.6,13.6,0,0,1,.93-12.63,43,43,0,0,1,5.13-6.75A64.62,64.62,0,0,1,190,419c15.3-8.83,31.71-14.75,48.82-19,25.76-6.35,51.88-8.13,78.3-6.88,18.46.88,36.87,2.48,55.24,4.46,11.36,1.22,22.68,2.85,34,4.64,15.69,2.5,31.39,5,47,8.08,17.85,3.53,35.6,7.61,53.35,11.65,18.34,4.18,36.67,8.37,55.25,11.4,16.16,2.64,32.39,4.1,48.78,2.73a192.39,192.39,0,0,0,34.67-6.37c6.29-1.72,12.57-3.5,18.89-5.14a29.17,29.17,0,0,1,10.73-.85c6,.67,10.21,3.76,12.24,9.56,1.7,4.83,1.62,9.83.9,14.78-2,13.44-6.26,26.2-11.77,38.56-2.87,6.44-5.88,12.81-8.79,19.22-.57,1.25-1,2.56-1.43,3.86a4.91,4.91,0,0,0,1.66,5.8,30.06,30.06,0,0,0,5.82,3.71,108.11,108.11,0,0,0,20.54,6.68c8.11,1.92,16.24,3.71,24.32,5.75a34,34,0,0,1,7.66,2.93c5.84,3.13,7.68,8,5.67,14.33a37.38,37.38,0,0,1-6.1,11,113.67,113.67,0,0,1-21.7,21.57,152.94,152.94,0,0,1-34.89,20.25c-15.2,6.39-31.06,10.44-47.24,13.35A293.07,293.07,0,0,1,567.73,619.67Zm-31.81-40.91h-.48a15.36,15.36,0,0,1-.79-1.5c-1.22-3-2.46-6-3.64-9.09-4.86-12.55-8-25.59-10.3-38.78-3.14-17.76-5.84-35.58-8.83-53.36-.86-5.16-1.93-10.3-3.15-15.39a19.61,19.61,0,0,0-2.58-5.85c-2.45-3.81-7-5.35-11.55-4.27-4.06,1-5.55,3-6.44,8.24-.85,5-1.84,10-2.86,14.93a406.14,406.14,0,0,0-6.41,45.4c-.76,8.38-1.6,16.76-2.25,25.16-.81,10.62-1.49,21.26-2.17,31.89a25.71,25.71,0,0,0,.22,4.88c.3,2.38,2.21,3.42,4.29,2.22a7.33,7.33,0,0,0,2.33-2.6,7.19,7.19,0,0,0,.7-2.72c.75-5.88,1.51-11.76,2.16-17.65,2.05-18.44,4-36.9,6.09-55.33.72-6.39,1.71-12.74,2.58-19.1a1.91,1.91,0,0,1,.91,1.3c1.6,10.09,3.15,20.19,4.76,30.28A344,344,0,0,0,507.88,561c1.9,6.41,4.24,12.7,6.72,18.91a24.54,24.54,0,0,0,9.07,11.32,13.62,13.62,0,0,0,19.45-3.82,18.56,18.56,0,0,0,2.38-4.83A114.56,114.56,0,0,0,549,569.36c2.83-16.44,4.34-33.05,5.77-49.65.62-7.19,1.11-14.4,1.79-21.58.92-9.85,1.5-19.71,1.64-29.59a22.77,22.77,0,0,0-.17-3.09,3.34,3.34,0,0,0-3.05-3.29,4.34,4.34,0,0,0-5.43,3.73c-.59,4.42-1.09,8.87-1.53,13.31-.76,7.7-1.42,15.4-2.16,23.1-1.3,13.42-2.46,26.87-4,40.27-1.13,9.89-2.73,19.73-4.22,29.58A67.31,67.31,0,0,1,535.92,578.76ZM400,461.55h.38c.21.73.46,1.45.61,2.2,1.57,7.82,3.17,15.65,4.68,23.49,3.43,17.88,7.08,35.71,11.84,53.29,2.12,7.8,4.53,15.5,8.23,22.73a36.17,36.17,0,0,0,10.72,13c6.1,4.46,12.87,3.67,17.52-2.34a29.18,29.18,0,0,0,3.78-7,59.74,59.74,0,0,0,3.6-15.26c1-8.62,1.9-17.25,2.73-25.89,1.22-12.74,2.32-25.5,3.5-38.25.78-8.38,1.63-16.76,2.4-25.14.45-4.88.86-9.77,1.18-14.65.18-2.6-1-3.82-3.57-4a4.81,4.81,0,0,0-5.34,4.62c-1.34,13.42-3,26.82-4.41,40.23-1.81,17-3.39,34-5.33,51-.84,7.33-2.34,14.58-3.59,21.86a38.24,38.24,0,0,1-1.19,3.94,16.1,16.1,0,0,1-1-1.8c-2.94-7.79-6.24-15.47-8.71-23.4-5.15-16.59-8.41-33.65-11.78-50.66-2.06-10.36-3.76-20.79-6.73-30.94A71.44,71.44,0,0,0,416,449a14.22,14.22,0,0,0-8.48-7.84c-5.12-1.76-12.49-.89-15.17,7.09a24.14,24.14,0,0,0-.83,2.71c-.83,4-1.8,8.05-2.37,12.13-1.38,9.86-2.72,19.74-3.8,29.64q-1.71,15.76-2.88,31.57c-.66,8.74-1,17.51-1.41,26.27-.19,4.37-.17,8.76-.15,13.15,0,2,.72,3,2.15,3.38a3.71,3.71,0,0,0,4-1.71,9.3,9.3,0,0,0,1.06-3.4c1-9.91,2.09-19.82,2.95-29.75,1.82-20.89,4.06-41.73,7.39-62.44C398.89,467,399.46,464.3,400,461.55Zm221.92,46.11h.38c0,.59.09,1.18.08,1.77-.05,8.08,0,16.17-.2,24.24-.29,11.7-1.22,23.33-4,34.76A52.07,52.07,0,0,1,613,582.64a19.64,19.64,0,0,1-9,8.27A9.82,9.82,0,0,1,593,589.43a14.29,14.29,0,0,1-4.69-6.66c-1-3.19-1.88-6.43-2.58-9.69-.53-2.51-.66-5.11-1.06-7.66a3.61,3.61,0,0,0-5.09-3.08c-2.41.82-3.37,2.14-3.26,4.88a52.91,52.91,0,0,0,5.55,22.34c4.25,8.37,11.54,12.24,21.72,10.26a35.9,35.9,0,0,0,19.73-11.45,57.24,57.24,0,0,0,8.24-11.81c5.45-10.09,7.8-21,8.8-32.34.61-6.76,1-13.54,1.28-20.32a241.27,241.27,0,0,0-1.87-45.27,54,54,0,0,0-2.59-10.47c-1.64-4.56-5.55-6.49-10.31-5.67-3.42.59-5.27,2.6-5.6,6.07-.32,3.24-.55,6.51-1,9.74a154.44,154.44,0,0,1-8.87,35.41A62.55,62.55,0,0,1,604,527.86a35,35,0,0,1-3.61,4,2.13,2.13,0,0,1-3,.25,30.67,30.67,0,0,1-4.52-4.13,24.11,24.11,0,0,1-5.08-11.16A127.89,127.89,0,0,1,585.83,501c-.36-7.89-.17-15.8-.27-23.71,0-2.31-.15-4.63-.4-6.93a7.39,7.39,0,0,0-4.2-6.1,9.71,9.71,0,0,0-14.14,7.12c-.11.67-.17,1.36-.22,2.05A189.08,189.08,0,0,0,566,501c.69,10.66,3.9,20.37,10.65,28.76a29.3,29.3,0,0,0,13.93,9.79c6.2,2,11.78.79,16.46-3.68a29.75,29.75,0,0,0,5.29-6.6c2.38-4.17,4.44-8.53,6.41-12.9C620,513.54,620.84,510.56,621.89,507.66ZM280.83,532.91c-.3,6.28-1,11.19-3.7,15.57-4.55,7.35-13.4,7.51-18.21.31a29.87,29.87,0,0,1-2.37-4.56c-2.35-5.32-3.34-11-4.21-16.69-.47-3.13-2.78-4.28-5.59-2.77a4.26,4.26,0,0,0-2.42,4.21c.06,1.29.24,2.57.37,3.85.63,6.09,1.71,12.06,4.28,17.7,3.21,7.06,8.6,11.2,16.25,12.35a25,25,0,0,0,11.19-1.15,33.76,33.76,0,0,0,22.69-38.62A68.34,68.34,0,0,0,286.6,494.3a89.17,89.17,0,0,0-14.41-15.41c-5.28-4.39-10.65-8.68-16-13a52.89,52.89,0,0,1-9-8.77,21.32,21.32,0,0,1-4.59-15.42,26.54,26.54,0,0,1,4.77-12.9c1.36-1.93,3.17-2.94,5.54-2.41a24.93,24.93,0,0,1,5.88,1.74c8.28,4.2,14,10.66,16.61,19.69.31,1.07.52,2.17.77,3.26a2.85,2.85,0,0,0,2.56,2.51,3.25,3.25,0,0,0,3.41-2.21,15.64,15.64,0,0,0,.74-3.77,21.59,21.59,0,0,0-3.23-12.81,36.73,36.73,0,0,0-22.54-17.23,25.21,25.21,0,0,0-14-.09c-10.67,3.13-19.38,14.58-20.08,26.28a30.2,30.2,0,0,0,6.3,20.49,90.57,90.57,0,0,0,9.55,10.43c2.95,2.85,6.26,5.35,9.49,7.93a122.74,122.74,0,0,1,16.07,14.85c7.06,8.08,12.46,17.05,15,27.55C280.15,528,280.51,531.07,280.83,532.91Zm61.87,19.93a26.7,26.7,0,0,1-3.62-3.27,31.35,31.35,0,0,1-3.52-5.67,52.59,52.59,0,0,1-4.71-17.33c-.9-8.37-1.68-16.76-2.2-25.16-1.08-17.53-.33-35.05.94-52.55.36-5,.6-9.95.78-14.93.12-3.25-1.65-5.34-4.59-6.44a12,12,0,0,0-8.82.19c-3.41,1.34-5.49,3.79-5.76,7.53-.84,11.65-1.93,23.3-2.41,35a333.29,333.29,0,0,0,.91,42.51,107.16,107.16,0,0,0,3.6,21,53.52,53.52,0,0,0,9.29,18.83,25.29,25.29,0,0,0,10.28,8c6.66,2.67,13.35,1.34,18.1-4a36.79,36.79,0,0,0,5.06-7.71A74,74,0,0,0,361.78,532c4.08-17.24,6.53-34.77,8.73-52.33,1.56-12.44,2.71-24.94,4-37.41.35-3.42.61-6.85.8-10.28.12-2.22-.91-3.33-3.1-3.66-3.1-.46-4.92,1-5.37,4.36-3.07,22.9-6,45.82-9.28,68.7-1.49,10.44-3.6,20.81-5.63,31.17a56.24,56.24,0,0,1-5.1,15.09A12.22,12.22,0,0,1,342.7,552.84Z"/><path class="cls-3" d="M224.55,602.39c.83-1.33,2.11-1.36,3.27-1.49,6.48-.78,13-1.55,19.45-2.23a323.24,323.24,0,0,1,47.9-1c9.78.44,19.56,1.06,29.33,1.78,8.57.63,17.12,1.42,25.67,2.31,6.31.66,12.61,1.53,18.91,2.4q21,2.91,42.06,5.92a445,445,0,0,1,53,10.47c1.65.44,3.34.78,5,1.25,2.1.6,2.59,1.76,1.49,3.66a15.69,15.69,0,0,1-2.07,2.62c-10.3,11.27-22.4,20.25-35.55,27.9-18.6,10.83-38.63,17.72-59.74,21.67a156.55,156.55,0,0,1-38,2.44,133.41,133.41,0,0,1-59.8-18.31C251.8,648.06,235.28,628.11,224.7,603A6,6,0,0,1,224.55,602.39Z"/><path class="cls-3" d="M476.14,698.87a35.47,35.47,0,0,1-.85,4.16,8,8,0,0,1-11,5.07,12,12,0,0,1-4-2.67,47.62,47.62,0,0,1-5.87-7.14,111.26,111.26,0,0,1-12.3-25.73,20.53,20.53,0,0,1-1-5.81c-.06-3.25,2.46-5.11,5.56-4.07a15.3,15.3,0,0,1,4.93,2.7c6.78,5.71,13.22,11.76,18.42,19a32,32,0,0,1,4.82,9.06C475.44,695.24,475.74,697.11,476.14,698.87Z"/><path class="cls-3" d="M410.14,723.11c0,3.86-.6,7.52-3.38,10.51a8,8,0,0,1-11.52.55,13.05,13.05,0,0,1-3-4.1,48.22,48.22,0,0,1-3.11-9,111.74,111.74,0,0,1-2.69-27.89,21.92,21.92,0,0,1,1.07-5.79c1-3.1,4-4.06,6.59-2a15.82,15.82,0,0,1,3.86,4.41c4.15,7.24,7.95,14.66,10.36,22.7A36.57,36.57,0,0,1,410.14,723.11Z"/><path class="cls-3" d="M178.23,638.61a30.71,30.71,0,0,1-4.79-1.2c-5.31-2.16-7-7.77-3.77-12.54a11.77,11.77,0,0,1,3-3.13,50,50,0,0,1,7.69-4.66,110.9,110.9,0,0,1,27.9-8.8,17.85,17.85,0,0,1,5.11,0c3.36.43,4.85,3.2,3.3,6.24a15.25,15.25,0,0,1-3.22,4.29c-6.77,6.1-13.8,11.91-22,16a65.8,65.8,0,0,1-8.91,3.25A27.45,27.45,0,0,1,178.23,638.61Z"/><path class="cls-3" d="M209,689c-4-.3-7-1-8.67-3.89a9,9,0,0,1,.19-9.79,31.74,31.74,0,0,1,7.78-8.19,114.14,114.14,0,0,1,24.2-14.65,22,22,0,0,1,5.68-1.56,4,4,0,0,1,4.66,5.11,16.3,16.3,0,0,1-2.34,5.39c-4.67,6.81-9.67,13.38-15.78,19a33.41,33.41,0,0,1-9.93,6.85A53.88,53.88,0,0,1,209,689Z"/><path class="cls-3" d="M337.17,714.13c-.31,3.63-.65,9.11-1.29,14.56a21.24,21.24,0,0,1-3.48,9.62,17.06,17.06,0,0,1-4.18,4.45c-5,3.44-11,1.3-12.82-4.47a16,16,0,0,1-.68-4.3,42.93,42.93,0,0,1,1.43-12.25c2-8,4.22-16,7.91-23.4a22.26,22.26,0,0,1,3.12-4.69c2.31-2.65,5.57-2.27,7.14.89a18.25,18.25,0,0,1,1.67,5.64C336.49,704.18,336.69,708.22,337.17,714.13Z"/><path class="cls-3" d="M287,683.81a34.35,34.35,0,0,1-.66,4.06c-2.38,8.27-5,16.43-9.25,24a35.39,35.39,0,0,1-6.62,8.84,15.19,15.19,0,0,1-7.33,4.11c-5.84,1.2-10.52-2.68-10.32-8.65a12.14,12.14,0,0,1,.88-4.26,51.2,51.2,0,0,1,4-8.06A112.33,112.33,0,0,1,276,681.91a20.38,20.38,0,0,1,4.21-2.91c3.52-1.83,6.39-.17,6.71,3.76,0,.34,0,.69,0,1Z"/><path class="cls-4" d="M502,402.84c7.27-10.59,9-33.21,2.29-45.06-7.13-12.57-25.45-11.75-24,10.75.07,1.05.06,2.11.08,3.43-15-11.62-26.25-4.42-24.25,5.26C460.57,398.83,494.89,413.12,502,402.84Z"/><path class="cls-4" d="M418.21,395.77c9.26-3.87,20-18,20.6-28.61.64-11.28-11.74-18.51-20.29-3.1-.4.72-.87,1.41-1.4,2.28-4.93-14-15.37-14-18.16-6.82C392.73,375.59,409.21,399.53,418.21,395.77Z"/><path class="cls-4" d="M366.74,383.24c6.24-5.91,10.55-20.46,7.82-29.15-2.91-9.23-15-11.26-17.19,3.67-.1.7-.26,1.39-.43,2.25-8.18-9.7-16.55-6.57-16.6,0C340.23,374.81,360.68,389,366.74,383.24Z"/><path class="cls-4" d="M308.8,357.39c-.34.5-.74,1-1.2,1.55-2.47-10.58-10.07-11.44-12.68-6.42-5.82,11.22,4.28,30,11.13,28,7.06-2.08,16-11.51,17.29-19.2C324.71,353.11,316.27,346.85,308.8,357.39Z"/><path class="cls-4" d="M256.28,383.05c9.12-8.63,15.43-29.92,11.43-42.62-4.25-13.49-21.94-16.46-25.13,5.36-.15,1-.38,2-.63,3.3-12-14.18-24.2-9.6-24.27.06C217.51,370.73,247.41,391.44,256.28,383.05Z"/></svg>