<?xml version="1.0" standalone="no"?>
<!DOCTYPE svg PUBLIC "-//W3C//DTD SVG 20010904//EN"
 "http://www.w3.org/TR/2001/REC-SVG-20010904/DTD/svg10.dtd">
<svg version="1.0" xmlns="http://www.w3.org/2000/svg"
 width="113.000000pt" height="60.000000pt" viewBox="0 0 113.000000 60.000000"
 preserveAspectRatio="xMidYMid meet">
<metadata>
Created by potrace 1.15, written by Peter Selinger 2001-2017
</metadata>
<g transform="translate(0.000000,60.000000) scale(0.100000,-0.100000)"
fill="#000000" stroke="none">
<path d="M366 335 c-137 -49 -159 -241 -33 -307 35 -19 58 -22 142 -23 l100 0
5 143 5 143 95 -138 c91 -132 97 -138 133 -141 l37 -3 0 103 c0 57 3 127 6
156 l7 52 53 0 54 0 0 -160 c0 -153 1 -160 20 -160 19 0 20 7 20 93 0 50 3
123 7 160 l6 68 51 -2 c42 -3 52 0 54 14 3 16 -9 17 -155 15 l-158 -3 -5 -145
-5 -145 -100 147 c-94 139 -102 148 -132 148 -30 0 -33 -3 -33 -32 -1 -112
-15 -274 -24 -281 -17 -12 -119 -1 -154 17 -41 21 -65 69 -66 127 0 90 52 135
156 133 60 -1 68 1 68 17 0 16 -8 19 -57 19 -32 -1 -75 -7 -97 -15z"/>
</g>
</svg>
